<?xml version="1.0" encoding="UTF-8" standalone="no"?>
<svg
   version="1.1"
   x="0px"
   y="0px"
   viewBox="0 0 50 105"
   enable-background="new 0 0 100 100"
   xml:space="preserve"
   id="svg3"
   sodipodi:docname="steam.svg"
   width="50"
   height="105"
   inkscape:version="1.3.2 (091e20e, 2023-11-25, custom)"
   xmlns:inkscape="http://www.inkscape.org/namespaces/inkscape"
   xmlns:sodipodi="http://sodipodi.sourceforge.net/DTD/sodipodi-0.dtd"
   xmlns="http://www.w3.org/2000/svg"
   xmlns:svg="http://www.w3.org/2000/svg"><defs
     id="defs3" /><sodipodi:namedview
     id="namedview3"
     pagecolor="#ffffff"
     bordercolor="#15AAC3"
     borderopacity="0.25"
     inkscape:showpageshadow="2"
     inkscape:pageopacity="0.0"
     inkscape:pagecheckerboard="0"
     inkscape:deskcolor="#d1d1d1"
     inkscape:zoom="6.512"
     inkscape:cx="49.984644"
     inkscape:cy="74.785012"
     inkscape:window-width="1280"
     inkscape:window-height="650"
     inkscape:window-x="1914"
     inkscape:window-y="370"
     inkscape:window-maximized="1"
     inkscape:current-layer="svg3" /><g
     id="g2"
     transform="matrix(1.2881065,0,0,1.0233739,-39.404686,0.83028356)"
     style="fill:#15aac3;fill-opacity:1;opacity:1"><path
       d="m 63.532,48.878 v -2 -3.021 h -3.011 v -6.999 h -9.989 v 6.999 h -3 v 3.021 2 11.979 h -12 v 3.031 c -0.08,-0.008 -0.155,-0.031 -0.238,-0.031 -1.522,0 -2.762,1.24 -2.762,2.762 v 6.477 c 0,1.523 1.239,2.762 2.763,2.762 0.082,0 0.157,-0.021 0.237,-0.029 v 0.994 c -0.08,-0.008 -0.155,-0.029 -0.238,-0.029 -1.522,0 -2.762,1.238 -2.762,2.762 v 3.541 c 0,1.523 1.239,2.762 2.763,2.762 0.082,0 0.157,-0.021 0.237,-0.029 v 13.029 h 29 v -38 h -1 z m -2,11.979 h -1 v -3 h -1 v -8.979 h 2 z m -4,-3 h -4 v -8.979 h 4 z m -5,2 h 6 v 1 h -6 z m 0,-20.999 h 5.989 v 4.999 h -5.989 z m -3,6.999 h 1 9.989 1.011 v 1.021 h -3 -6 -3 z m 0,3.021 h 2 v 8.979 h -1 v 3 h -1 z M 35.295,73.857 v 0 c -0.421,0 -0.763,-0.342 -0.763,-0.762 v -6.477 c 0,-0.42 0.343,-0.762 0.763,-0.762 0.084,0 0.162,0.023 0.237,0.049 v 7.904 c -0.075,0.027 -0.153,0.048 -0.237,0.048 z m 0,10 v 0 c -0.421,0 -0.763,-0.342 -0.763,-0.762 v -3.541 c 0,-0.42 0.343,-0.762 0.763,-0.762 0.084,0 0.162,0.021 0.237,0.047 v 4.971 c -0.075,0.026 -0.153,0.047 -0.237,0.047 z m 27.237,13 h -25 v -34 h 10 3 10 2 z"
       id="path1"
       style="fill:#15aac3;fill-opacity:1" /><rect
       x="58.533001"
       y="70.945"
       width="2"
       height="5.9120002"
       id="rect1"
       style="fill:#15aac3;fill-opacity:1" /><rect
       x="47.514999"
       y="92.857002"
       width="4.954"
       height="2"
       id="rect2"
       style="fill:#15aac3;fill-opacity:1" /><polygon
       points="55.47,94.842 60.533,94.842 60.533,79.877 58.533,79.877 58.533,92.842 55.47,92.842 "
       id="polygon2"
       style="fill:#15aac3;fill-opacity:1" /><path
       d="m 65.426,24.036 c 0.1,-0.104 0.198,-0.209 0.291,-0.319 0.06,-0.071 0.115,-0.146 0.172,-0.219 0.084,-0.106 0.166,-0.214 0.243,-0.324 0.056,-0.079 0.106,-0.161 0.159,-0.242 0.071,-0.111 0.141,-0.224 0.206,-0.339 0.049,-0.086 0.095,-0.173 0.141,-0.261 0.061,-0.117 0.117,-0.235 0.172,-0.356 0.04,-0.09 0.08,-0.18 0.117,-0.272 0.05,-0.125 0.096,-0.252 0.14,-0.381 0.031,-0.092 0.063,-0.183 0.091,-0.276 0.04,-0.136 0.073,-0.273 0.106,-0.412 0.021,-0.091 0.045,-0.18 0.063,-0.271 0.03,-0.155 0.051,-0.313 0.072,-0.47 0.01,-0.079 0.024,-0.156 0.032,-0.236 0.023,-0.238 0.036,-0.48 0.036,-0.725 0,-0.28 -0.018,-0.557 -0.049,-0.83 -0.004,-0.039 -0.012,-0.076 -0.017,-0.115 -0.031,-0.246 -0.074,-0.489 -0.129,-0.729 -0.005,-0.019 -0.01,-0.036 -0.014,-0.054 -0.324,-1.37 -1.024,-2.62 -2.051,-3.611 0.026,-0.063 0.036,-0.131 0.062,-0.194 0.084,-0.215 0.153,-0.435 0.208,-0.66 0.023,-0.097 0.046,-0.193 0.063,-0.292 0.056,-0.305 0.095,-0.613 0.095,-0.929 0,-0.231 -0.017,-0.461 -0.046,-0.687 -0.007,-0.05 -0.021,-0.098 -0.028,-0.147 C 65.533,10.508 65.5,10.332 65.455,10.162 65.441,10.113 65.423,10.066 65.408,10.017 65.357,9.848 65.303,9.682 65.236,9.52 65.216,9.471 65.191,9.426 65.17,9.378 65.1,9.22 65.024,9.065 64.94,8.916 64.912,8.867 64.879,8.821 64.85,8.773 64.762,8.63 64.671,8.492 64.57,8.358 64.533,8.308 64.492,8.261 64.452,8.212 64.351,8.088 64.247,7.968 64.134,7.853 64.085,7.803 64.034,7.757 63.984,7.709 63.873,7.603 63.756,7.501 63.634,7.405 63.575,7.358 63.515,7.315 63.453,7.27 63.388,7.223 63.327,7.17 63.26,7.126 c 0.003,-0.019 0.002,-0.038 0.005,-0.057 0.04,-0.221 0.064,-0.446 0.064,-0.676 0,-2.135 -1.736,-3.871 -3.871,-3.871 -0.251,0 -0.497,0.028 -0.738,0.074 -0.078,0.016 -0.152,0.043 -0.229,0.063 -0.159,0.041 -0.316,0.085 -0.468,0.146 -0.08,0.032 -0.154,0.072 -0.231,0.109 -0.143,0.068 -0.281,0.14 -0.414,0.225 -0.069,0.045 -0.134,0.094 -0.2,0.143 C 57.103,3.338 57.021,3.384 56.949,3.444 56.291,2.736 55.502,2.176 54.634,1.785 v 0 c -10e-4,0 -10e-4,0 -10e-4,0 C 54.404,1.681 54.17,1.59 53.931,1.511 53.925,1.509 53.919,1.506 53.913,1.504 53.704,1.436 53.491,1.38 53.276,1.331 53.24,1.322 53.204,1.31 53.168,1.303 52.979,1.263 52.785,1.236 52.592,1.211 52.532,1.203 52.474,1.19 52.413,1.183 52.161,1.157 51.906,1.143 51.648,1.143 c -3.997,0 -7.25,3.252 -7.25,7.249 0,0.272 0.02,0.543 0.05,0.813 0.01,0.087 0.025,0.173 0.038,0.259 0.027,0.184 0.061,0.366 0.103,0.547 0.021,0.094 0.044,0.187 0.068,0.279 0.05,0.182 0.107,0.359 0.17,0.537 0.028,0.077 0.052,0.155 0.082,0.23 0.01,0.025 0.017,0.051 0.026,0.076 -0.329,0.203 -0.631,0.439 -0.919,0.69 L 44.01,11.816 c -0.09,0.078 -0.169,0.165 -0.255,0.247 -0.088,0.085 -0.179,0.166 -0.262,0.255 -0.151,0.161 -0.291,0.331 -0.425,0.504 -0.08,0.104 -0.154,0.211 -0.229,0.318 -0.106,0.154 -0.211,0.31 -0.305,0.471 -0.058,0.1 -0.106,0.204 -0.159,0.307 -0.074,0.144 -0.146,0.287 -0.21,0.436 -0.047,0.109 -0.089,0.22 -0.13,0.331 -0.057,0.152 -0.107,0.307 -0.153,0.463 -0.032,0.109 -0.064,0.219 -0.091,0.331 -0.043,0.175 -0.075,0.353 -0.104,0.531 -0.016,0.097 -0.035,0.191 -0.047,0.288 -0.033,0.278 -0.055,0.56 -0.055,0.844 0,0.36 0.036,0.715 0.089,1.065 0.017,0.107 0.039,0.213 0.061,0.319 0.049,0.246 0.11,0.487 0.185,0.726 0.033,0.106 0.064,0.213 0.103,0.318 0.104,0.283 0.224,0.56 0.362,0.827 0.024,0.047 0.045,0.095 0.07,0.141 0.153,0.28 0.329,0.546 0.52,0.804 0.078,0.105 0.164,0.204 0.248,0.305 0.131,0.157 0.267,0.309 0.41,0.454 0.107,0.108 0.215,0.213 0.328,0.314 0.143,0.126 0.294,0.242 0.447,0.357 0.122,0.092 0.238,0.188 0.366,0.272 0.008,0.005 0.015,0.012 0.022,0.017 l 0.002,-0.003 c 0.6,0.39 1.259,0.699 1.972,0.894 -0.021,0.174 -0.031,0.351 -0.031,0.527 0,0.002 -10e-4,0.005 -10e-4,0.007 v 0 10e-4 c 0,0.292 0.032,0.577 0.087,0.854 0.018,0.089 0.05,0.172 0.072,0.26 0.048,0.184 0.098,0.365 0.168,0.539 0.039,0.098 0.091,0.189 0.138,0.284 0.074,0.152 0.15,0.302 0.24,0.443 0.061,0.094 0.128,0.181 0.194,0.27 0.098,0.13 0.197,0.255 0.308,0.372 0.077,0.083 0.159,0.16 0.242,0.237 0.117,0.107 0.239,0.208 0.367,0.304 0.093,0.067 0.185,0.132 0.282,0.193 0.136,0.085 0.278,0.159 0.424,0.229 0.103,0.05 0.203,0.1 0.31,0.142 0.155,0.061 0.316,0.105 0.479,0.148 0.108,0.029 0.213,0.063 0.324,0.083 0.034,0.006 0.066,0.02 0.102,0.025 0.006,0.061 0.028,0.114 0.037,0.174 0.022,0.155 0.055,0.305 0.096,0.452 0.031,0.114 0.063,0.227 0.104,0.336 0.049,0.128 0.11,0.247 0.173,0.367 0.059,0.115 0.113,0.23 0.184,0.339 0.066,0.101 0.147,0.188 0.223,0.281 0.142,0.175 0.296,0.336 0.469,0.482 0.117,0.101 0.231,0.202 0.36,0.288 0.021,0.014 0.036,0.032 0.058,0.046 -0.021,0.161 -0.031,0.325 -0.031,0.489 0,2.057 1.673,3.729 3.729,3.729 2.056,0 3.729,-1.673 3.729,-3.729 0,-0.267 -0.038,-0.525 -0.093,-0.778 -0.007,-0.033 -0.005,-0.067 -0.013,-0.101 0.044,-0.027 0.083,-0.061 0.125,-0.089 0.055,-0.037 0.108,-0.075 0.161,-0.114 0.117,-0.088 0.229,-0.181 0.336,-0.28 0.042,-0.038 0.085,-0.075 0.126,-0.115 0.284,-0.285 0.527,-0.609 0.719,-0.964 0.026,-0.049 0.049,-0.101 0.073,-0.15 0.064,-0.131 0.122,-0.265 0.173,-0.402 0.023,-0.063 0.045,-0.127 0.064,-0.192 0.043,-0.136 0.077,-0.274 0.105,-0.416 0.012,-0.062 0.027,-0.122 0.036,-0.184 0.031,-0.202 0.052,-0.407 0.052,-0.615 0,-0.232 -0.023,-0.464 -0.063,-0.693 -0.017,-0.097 -0.047,-0.188 -0.069,-0.283 -0.032,-0.13 -0.063,-0.259 -0.106,-0.385 -0.01,-0.028 -0.014,-0.06 -0.023,-0.088 0.057,-0.009 0.11,-0.024 0.166,-0.034 0.104,-0.02 0.207,-0.041 0.311,-0.064 0.127,-0.029 0.254,-0.063 0.379,-0.098 0.1,-0.028 0.198,-0.058 0.297,-0.09 0.125,-0.041 0.249,-0.088 0.371,-0.137 0.093,-0.035 0.185,-0.07 0.275,-0.11 0.126,-0.056 0.249,-0.117 0.372,-0.18 0.081,-0.041 0.165,-0.08 0.245,-0.124 0.134,-0.075 0.264,-0.157 0.393,-0.239 0.063,-0.04 0.129,-0.077 0.19,-0.119 0.187,-0.128 0.368,-0.263 0.543,-0.406 0.032,-0.027 0.063,-0.058 0.095,-0.085 0.141,-0.12 0.278,-0.242 0.409,-0.372 0.059,-0.057 0.114,-0.121 0.171,-0.181 z m -9.55,9.821 c -0.928,0 -1.682,-0.735 -1.723,-1.653 0.31,-10e-4 0.616,-0.04 0.914,-0.117 l -0.5,-1.936 c -0.137,0.035 -0.278,0.053 -0.422,0.053 -0.192,0 -0.374,-0.039 -0.547,-0.099 -0.148,-0.051 -0.288,-0.118 -0.413,-0.204 -0.027,-0.019 -0.051,-0.043 -0.077,-0.063 -0.099,-0.077 -0.187,-0.165 -0.265,-0.261 -0.025,-0.031 -0.054,-0.06 -0.076,-0.092 -0.084,-0.119 -0.149,-0.25 -0.2,-0.387 -0.014,-0.036 -0.023,-0.072 -0.034,-0.109 -0.044,-0.151 -0.075,-0.309 -0.075,-0.473 0,-0.761 0.513,-1.431 1.247,-1.63 l -0.522,-1.93 c -1.047,0.283 -1.881,1.009 -2.339,1.938 -0.052,-0.008 -0.106,-0.006 -0.157,-0.017 -1.11,-0.228 -1.949,-1.214 -1.949,-2.392 0,0 10e-4,-0.002 10e-4,-0.003 0,-0.198 0.031,-0.391 0.077,-0.579 0.014,-0.052 0.031,-0.103 0.047,-0.153 0.186,-0.583 0.576,-1.088 1.125,-1.395 l -0.975,-1.746 c -0.632,0.353 -1.149,0.854 -1.534,1.438 -0.654,-0.154 -1.255,-0.426 -1.778,-0.802 -0.083,-0.06 -0.167,-0.118 -0.245,-0.183 -0.192,-0.156 -0.377,-0.323 -0.544,-0.506 -0.044,-0.048 -0.08,-0.101 -0.122,-0.149 -0.134,-0.158 -0.259,-0.324 -0.372,-0.499 -0.046,-0.069 -0.091,-0.14 -0.133,-0.211 -0.132,-0.225 -0.253,-0.457 -0.349,-0.701 -0.008,-0.02 -0.013,-0.04 -0.02,-0.06 -0.09,-0.237 -0.158,-0.485 -0.212,-0.738 -0.015,-0.072 -0.028,-0.145 -0.041,-0.217 -0.046,-0.275 -0.078,-0.555 -0.078,-0.842 0,-0.226 0.021,-0.448 0.05,-0.668 0.009,-0.066 0.021,-0.133 0.032,-0.199 0.028,-0.161 0.063,-0.319 0.106,-0.476 0.018,-0.063 0.032,-0.125 0.052,-0.187 0.063,-0.202 0.139,-0.4 0.227,-0.591 0.023,-0.051 0.052,-0.099 0.077,-0.147 0.072,-0.146 0.322,-0.554 0.366,-0.618 0.088,-0.125 0.181,-0.246 0.279,-0.363 0.043,-0.051 0.083,-0.104 0.128,-0.154 0.306,-0.336 0.657,-0.633 1.05,-0.879 0.46,0.586 1.003,1.113 1.639,1.542 L 48.71,12.741 C 48.022,12.276 47.47,11.662 47.075,10.961 47.011,10.847 46.954,10.729 46.898,10.609 46.859,10.525 46.818,10.442 46.783,10.357 46.732,10.231 46.691,10.101 46.65,9.972 46.624,9.889 46.593,9.807 46.571,9.723 46.533,9.576 46.507,9.425 46.48,9.275 46.468,9.205 46.451,9.136 46.441,9.065 46.413,8.841 46.396,8.617 46.396,8.389 c 0,-2.895 2.355,-5.249 5.25,-5.249 0.209,0 0.416,0.015 0.62,0.039 0.067,0.008 0.133,0.021 0.199,0.032 0.135,0.021 0.269,0.045 0.399,0.076 0.083,0.02 0.165,0.043 0.247,0.066 0.108,0.032 0.217,0.067 0.323,0.105 0.091,0.033 0.182,0.067 0.271,0.106 0.816,0.348 1.534,0.901 2.09,1.622 -0.126,0.382 -0.211,0.78 -0.211,1.203 0,0.525 0.104,1.036 0.312,1.519 l 1.839,-0.785 c -0.099,-0.23 -0.15,-0.483 -0.15,-0.733 0,-0.346 0.101,-0.665 0.265,-0.943 0.06,-0.102 0.129,-0.195 0.204,-0.282 0.024,-0.027 0.044,-0.058 0.068,-0.083 0.102,-0.103 0.215,-0.191 0.335,-0.268 0.037,-0.023 0.077,-0.042 0.116,-0.063 0.097,-0.052 0.198,-0.096 0.304,-0.13 0.042,-0.015 0.083,-0.028 0.126,-0.04 0.146,-0.036 0.298,-0.062 0.453,-0.062 1.031,0 1.871,0.84 1.871,1.871 0,0.188 -0.037,0.368 -0.09,0.541 -0.012,0.037 -0.024,0.074 -0.038,0.11 -0.204,0.541 -0.647,0.979 -1.224,1.146 l 0.555,1.922 c 0.724,-0.209 1.342,-0.63 1.818,-1.172 0.016,0.012 0.033,0.022 0.048,0.034 0.067,0.054 0.132,0.11 0.194,0.169 0.047,0.042 0.092,0.085 0.135,0.13 0.06,0.063 0.116,0.127 0.171,0.193 0.039,0.048 0.076,0.097 0.112,0.146 0.051,0.068 0.099,0.139 0.144,0.212 0.033,0.054 0.063,0.11 0.094,0.166 0.039,0.073 0.077,0.146 0.11,0.222 0.028,0.064 0.052,0.131 0.076,0.197 0.025,0.071 0.053,0.143 0.074,0.216 0.023,0.083 0.04,0.169 0.058,0.254 0.012,0.061 0.028,0.12 0.036,0.182 0.021,0.149 0.034,0.301 0.034,0.455 0,0.604 -0.175,1.188 -0.481,1.688 -0.006,0.01 -0.01,0.02 -0.016,0.029 -0.316,0.505 -0.77,0.924 -1.32,1.193 l 0.877,1.797 c 0.503,-0.245 0.948,-0.574 1.34,-0.956 0.904,0.995 1.432,2.305 1.432,3.663 0,2.999 -2.439,5.438 -5.438,5.438 -2.072,0 -3.994,-1.206 -4.896,-3.073 l -1.801,0.871 c 1.064,2.204 3.172,3.729 5.551,4.105 0.068,0.072 0.135,0.145 0.191,0.225 0.106,0.151 0.188,0.318 0.253,0.491 0.017,0.046 0.032,0.091 0.046,0.138 0.058,0.194 0.098,0.396 0.098,0.599 0,0.117 -0.01,0.233 -0.029,0.347 -0.098,0.589 -0.444,1.108 -0.937,1.435 -0.494,-0.498 -1.12,-0.869 -1.839,-1.025 l -0.424,1.955 c 0.56,0.121 0.998,0.52 1.214,1.024 0.019,0.044 0.041,0.087 0.056,0.132 0.057,0.17 0.094,0.349 0.094,0.534 0,0.959 -0.775,1.734 -1.729,1.734 z"
       id="path2"
       style="fill:#15aac3;fill-opacity:1" /></g></svg>
